<svg id="Layer_1" data-name="Layer 1" xmlns="http://www.w3.org/2000/svg" viewBox="0 0 80 80"><defs><style>.cls-1{fill:#fff;stroke:#000;stroke-miterlimit:10;stroke-width:2px;}</style></defs><circle class="cls-1" cx="40" cy="40" r="34.5"/><path d="M15.18,46.7v-.81c1.85-.18,2.09-.32,2.09-2.24V29.76c0-1.77-.15-1.94-2-2.18v-.75a20.84,20.84,0,0,0,4.3-1V43.65c0,1.92.17,2.06,2.06,2.24v.81Z"/><path d="M29.62,33.62a6.23,6.23,0,0,1,6.32,6.49c0,4.7-3.48,6.94-6.32,6.94a6.37,6.37,0,0,1-6.44-6.47A6.64,6.64,0,0,1,29.62,33.62Zm-.35,1c-1.77,0-3.36,1.71-3.36,5.08,0,3.68,1.62,6.35,4,6.35,1.8,0,3.31-1.3,3.31-5.28C33.22,37.36,31.82,34.6,29.27,34.6Z"/><path d="M42.09,42.46a2.13,2.13,0,0,0-1,1.45c0,.53.49,1.11,1.8,1.11l3.25,0c1.86,0,4.23.61,4.23,3.48S46.85,54.33,43,54.33c-3.28,0-5.05-1.92-5.11-3.63a2.25,2.25,0,0,1,.73-1.65A26.35,26.35,0,0,1,41,47a3.78,3.78,0,0,1-2.18-1.57,2.61,2.61,0,0,1-.35-1.24,6.09,6.09,0,0,0,2.67-2Zm1.39.29c-2.7,0-4.93-1.65-4.93-4.38,0-3.3,3-4.84,5.22-4.84a6,6,0,0,1,2.79.72,19.71,19.71,0,0,0,3.88-.43l.18.26a3.66,3.66,0,0,1-1.08,1.54c-.43,0-1.39-.12-1.79-.15a4.51,4.51,0,0,1,.84,2.64C48.59,41.27,46,42.75,43.48,42.75Zm.67,4.3a3.64,3.64,0,0,0-2.58.61A3.3,3.3,0,0,0,40.17,50c0,1.59,1.66,2.78,3.89,2.78,2.76,0,4.32-1.42,4.32-3.28a2.18,2.18,0,0,0-1.27-2.12A8,8,0,0,0,44.15,47.05Zm-.67-12.59c-1.3,0-2.46,1.19-2.46,3.48s1.16,3.89,2.75,3.89c1.28-.06,2.41-1.14,2.41-3.49S45.11,34.46,43.48,34.46Z"/><path d="M57.92,33.62a6.23,6.23,0,0,1,6.33,6.49c0,4.7-3.48,6.94-6.33,6.94a6.37,6.37,0,0,1-6.44-6.47A6.65,6.65,0,0,1,57.92,33.62Zm-.34,1c-1.77,0-3.37,1.71-3.37,5.08,0,3.68,1.62,6.35,4,6.35,1.8,0,3.31-1.3,3.31-5.28C61.52,37.36,60.13,34.6,57.58,34.6Z"/></svg>